<?xml version="1.0" encoding="UTF-8" standalone="no"?>
<!-- Created with Inkscape (http://www.inkscape.org/) -->

<svg
   version="1.1"
   id="svg1"
   width="336"
   height="192"
   viewBox="0 0 336 192"
   sodipodi:docname="Business Card Front V2.svg"
   inkscape:version="1.4.4 (dcaf3e7d9e, 2026-05-05)"
   xmlns:inkscape="http://www.inkscape.org/namespaces/inkscape"
   xmlns:sodipodi="http://sodipodi.sourceforge.net/DTD/sodipodi-0.dtd"
   xmlns="http://www.w3.org/2000/svg"
   xmlns:svg="http://www.w3.org/2000/svg"
   xmlns:rdf="http://www.w3.org/1999/02/22-rdf-syntax-ns#"
   xmlns:cc="http://creativecommons.org/ns#"
   xmlns:dc="http://purl.org/dc/elements/1.1/">
  <title
     id="title7">Adaptive Home Innvoations Logo</title>
  <defs
     id="defs1" />
  <sodipodi:namedview
     id="namedview1"
     pagecolor="#ffffff"
     bordercolor="#000000"
     borderopacity="0.25"
     inkscape:showpageshadow="2"
     inkscape:pageopacity="0.0"
     inkscape:pagecheckerboard="0"
     inkscape:deskcolor="#d1d1d1"
     inkscape:zoom="1.6770833"
     inkscape:cx="167.85094"
     inkscape:cy="96.000002"
     inkscape:window-width="1470"
     inkscape:window-height="891"
     inkscape:window-x="0"
     inkscape:window-y="0"
     inkscape:window-maximized="1"
     inkscape:current-layer="g1"
     showguides="true"
     inkscape:document-units="in">
    <inkscape:page
       x="0"
       y="0"
       inkscape:label="1"
       id="page1"
       width="336"
       height="192"
       margin="0"
       bleed="0" />
  </sodipodi:namedview>
  <g
     id="g1"
     inkscape:groupmode="layer"
     inkscape:label="1">
    <g
       id="g6">
      <path
         id="path1"
         d="m 27.385333,144.60284 c 0,-73.411053 62.745331,-132.925507 140.150667,-132.925507 77.40133,0 140.15199,59.514454 140.15199,132.925507"
         style="fill:#3a629f;fill-opacity:1;fill-rule:nonzero;stroke:none;stroke-width:1.31735" />
      <path
         id="path2"
         d="M 73.734665,85.676683 133.06266,28.08331 h 68.94267 l 59.328,57.593373 h -84.224 L 161.52666,70.541014 109.26533,70.551424 93.942664,85.67668 Z"
         style="fill:#ffffff;fill-opacity:1;fill-rule:nonzero;stroke:none;stroke-width:1.31735" />
      <path
         id="path3"
         d="m 154.016,62.315249 h -38.27067 l 19.004,-19.147031 z"
         style="fill:#3a629f;fill-opacity:1;fill-rule:nonzero;stroke:none;stroke-width:1.31735" />
      <path
         id="path4"
         d="m 231.82266,129.02985 h -11.104 v 15.57299 H 161.76 v -38.51793 h -52.64534 v 38.51793 H 90.969331 V 91.061175 h 18.145329 v 6.868254 H 161.76 v -6.868254 h 85.94266 v 53.541665 h -15.88 z"
         style="fill:#ffffff;fill-opacity:1;fill-rule:nonzero;stroke:none;stroke-width:1.31735" />
      <path
         id="path5"
         d="m 230.87466,122.10953 c 0,2.61871 -1.88533,4.709 -5.03067,4.709 -2.88533,0 -4.77066,-2.09029 -4.77066,-4.709 0,-2.6174 1.984,-4.79358 4.948,-4.79358 2.87466,0 4.85333,2.09418 4.85333,4.79358"
         style="fill:#3a629f;fill-opacity:1;fill-rule:nonzero;stroke:none;stroke-width:1.31735" />
    </g>
    <g
       id="g7">
      <g
         id="g3"
         transform="translate(0,4)">
        <g
           id="g4">
          <text
             id="text6"
             xml:space="preserve"
             transform="scale(1.0603869,0.94305201)"
             x="38.253429"
             y="171.08701"
             style="font-size:15.0888px;stroke-width:1.2574"><tspan
               id="tspan6"
               style="font-variant:normal;font-weight:normal;font-size:18.592px;font-family:'Ubuntu Sans';writing-mode:lr-tb;fill:#3a629f;fill-opacity:1;fill-rule:nonzero;stroke:none;stroke-width:1.2574"
               x="38.253429"
               y="171.08701">d</tspan></text>
          <path
             id="path7"
             d="m 46.666665,161.55179 c -0.999999,0 -1.885333,-0.18736 -2.645333,-0.56207 -0.750666,-0.38538 -1.344,-0.93796 -1.770666,-1.64588 -0.417334,-0.70792 -0.625334,-1.54747 -0.625334,-2.52101 0,-0.9427 0.177334,-1.77039 0.541334,-2.47949 0.36,-0.70793 0.88,-1.26051 1.562666,-1.66605 0.692,-0.4008 1.525334,-0.60475 2.5,-0.60475 0.634667,0 1.192,0.0783 1.666667,0.23004 0.484,0.15534 0.844,0.30712 1.082666,0.45772 v -4.7918 l 1.458667,-0.22886 v 13.33309 c -0.249333,0.0735 -0.562667,0.14585 -0.937333,0.22886 -0.364,0.0688 -0.781334,0.12569 -1.249334,0.16719 -0.458666,0.0522 -0.990666,0.083 -1.584,0.083 z m 0.02133,-1.16682 c 0.582666,0 1.061333,-0.0261 1.437333,-0.083 0.374667,-0.0522 0.656,-0.10435 0.853333,-0.14585 v -6.16614 c -0.224,-0.1672 -0.562666,-0.33321 -1.02,-0.50041 -0.458666,-0.1672 -0.98,-0.2502 -1.562666,-0.2502 -0.598667,0 -1.104,0.0937 -1.521333,0.27155 -0.405334,0.18142 -0.738667,0.43756 -1,0.77076 -0.249334,0.32254 -0.432,0.70318 -0.541334,1.14548 -0.114666,0.43163 -0.166666,0.89054 -0.166666,1.37434 0,0.76602 0.145333,1.41228 0.437333,1.93759 0.292,0.53124 0.698667,0.93797 1.229333,1.22967 0.541334,0.28103 1.156,0.41622 1.854667,0.41622 z"
             style="fill:none;stroke:#3a629f;stroke-width:1.16199;stroke-linecap:butt;stroke-linejoin:miter;stroke-miterlimit:4;stroke-dasharray:none;stroke-opacity:1" />
          <path
             id="path9"
             d="m 63.874665,164.59336 v -12.02042 c 0.261333,-0.083 0.573333,-0.15652 0.937333,-0.22886 0.36,-0.0676 0.776,-0.13043 1.250667,-0.18735 0.484,-0.0522 1.010667,-0.0842 1.582667,-0.0842 1.010666,0 1.901333,0.19802 2.666666,0.58341 0.761334,0.37471 1.354667,0.91662 1.770667,1.62572 0.417333,0.70792 0.625333,1.55695 0.625333,2.54116 0,0.91662 -0.181333,1.73957 -0.541333,2.45816 -0.364,0.70911 -0.885333,1.26643 -1.562667,1.66723 -0.682666,0.4008 -1.516,0.60357 -2.5,0.60357 -0.64,0 -1.202666,-0.0783 -1.688,-0.22886 -0.473333,-0.1672 -0.828,-0.32254 -1.061333,-0.47906 v 3.74949 z m 4.042667,-4.20839 c 0.593333,0 1.104,-0.0877 1.52,-0.27037 0.417333,-0.17668 0.750666,-0.43755 1,-0.77076 0.250666,-0.33321 0.426666,-0.70792 0.541333,-1.12532 0.125333,-0.42689 0.188,-0.88579 0.188,-1.37434 0,-0.76128 -0.145333,-1.41703 -0.437333,-1.95894 -0.292,-0.5419 -0.708,-0.94745 -1.250667,-1.22848 -0.530667,-0.27629 -1.145333,-0.4174 -1.853333,-0.4174 -0.573334,0 -1.041334,0.032 -1.417334,0.083 -0.374666,0.0581 -0.661333,0.10435 -0.853333,0.14586 v 6.14598 c 0.218667,0.15652 0.562667,0.32372 1.02,0.5004 0.469333,0.18262 0.985333,0.27037 1.542667,0.27037 z"
             style="fill:none;stroke:#3a629f;stroke-width:1.16199;stroke-linecap:butt;stroke-linejoin:miter;stroke-miterlimit:4;stroke-dasharray:none;stroke-opacity:1" />
          <path
             id="path11"
             d="m 83.155998,161.34427 v -9.08438 h 1.48 v 9.08438 z m 0.750667,-11.27099 c -0.292,0 -0.542667,-0.0842 -0.750667,-0.2502 -0.197333,-0.17668 -0.292,-0.4174 -0.292,-0.70911 0,-0.2751 0.09467,-0.49922 0.292,-0.66641 0.208,-0.17669 0.458667,-0.27036 0.750667,-0.27036 0.290666,0 0.530666,0.0937 0.729333,0.27036 0.208,0.16719 0.312,0.39131 0.312,0.66641 0,0.29171 -0.104,0.53243 -0.312,0.70911 -0.198667,0.16601 -0.438667,0.2502 -0.729333,0.2502 z"
             style="fill:none;stroke:#3a629f;stroke-width:1.16199;stroke-linecap:butt;stroke-linejoin:miter;stroke-miterlimit:4;stroke-dasharray:none;stroke-opacity:1" />
          <path
             id="path25"
             d="m 237.10933,161.34427 v -9.08438 h 1.47866 v 9.08438 z m 0.75066,-11.27099 c -0.292,0 -0.54266,-0.0842 -0.75066,-0.2502 -0.19734,-0.17668 -0.292,-0.4174 -0.292,-0.70911 0,-0.2751 0.0947,-0.49922 0.292,-0.66641 0.208,-0.17669 0.45866,-0.27036 0.75066,-0.27036 0.29067,0 0.53067,0.0937 0.728,0.27036 0.20934,0.16719 0.31334,0.39131 0.31334,0.66641 0,0.29171 -0.104,0.53243 -0.31334,0.70911 -0.19733,0.16601 -0.43733,0.2502 -0.728,0.2502 z"
             style="fill:none;stroke:#3a629f;stroke-width:1.16199;stroke-linecap:butt;stroke-linejoin:miter;stroke-miterlimit:4;stroke-dasharray:none;stroke-opacity:1" />
          <g
             id="g5">
            <text
               id="text5"
               xml:space="preserve"
               transform="scale(1.0603869,0.94305201)"
               x="26.187294"
               y="171.08701"
               style="font-size:15.0888px;stroke-width:1.2574"><tspan
                 id="tspan5"
                 style="font-variant:normal;font-weight:normal;font-size:18.592px;font-family:'Ubuntu Sans';writing-mode:lr-tb;fill:#3a629f;fill-opacity:1;fill-rule:nonzero;stroke:none;stroke-width:1.2574"
                 x="26.187294"
                 y="171.08701">A</tspan></text>
            <path
               id="path6"
               d="m 27.958666,161.34427 c 0.718667,-1.69331 1.374667,-3.23485 1.958667,-4.62579 0.593333,-1.38501 1.176,-2.69294 1.749333,-3.91668 0.568,-1.219 1.172,-2.42732 1.812,-3.62498 h 1.396 c 0.469333,0.89053 0.922666,1.79174 1.354666,2.70836 0.442667,0.90595 0.88,1.84391 1.312,2.81271 0.428,0.97354 0.88,2.00992 1.354667,3.10441 0.468,1.08263 0.964,2.26487 1.478667,3.54197 h -1.666667 c -0.238667,-0.58341 -0.468,-1.13599 -0.686667,-1.66722 -0.224,-0.54191 -0.433333,-1.06722 -0.625333,-1.58304 h -6.521333 c -0.208,0.51582 -0.426667,1.04113 -0.645333,1.58304 -0.224,0.53123 -0.448,1.08381 -0.666667,1.66722 z m 3.374667,-4.39693 h 5.603999 c -0.249333,-0.58222 -0.494666,-1.15022 -0.729333,-1.70754 -0.238667,-0.55258 -0.473333,-1.08856 -0.708,-1.60439 -0.224,-0.50989 -0.453333,-1.01029 -0.688,-1.50003 -0.224,-0.4838 -0.452,-0.95812 -0.686667,-1.41702 -0.224,0.4589 -0.453333,0.93322 -0.688,1.41702 -0.239999,0.48974 -0.473333,0.99014 -0.707999,1.50003 -0.224,0.51583 -0.453334,1.05181 -0.688,1.60439 -0.238667,0.55732 -0.473334,1.12532 -0.708,1.70754 z"
               style="fill:none;stroke:#3a629f;stroke-width:1.16199;stroke-linecap:butt;stroke-linejoin:miter;stroke-miterlimit:4;stroke-dasharray:none;stroke-opacity:1" />
            <text
               id="text7"
               xml:space="preserve"
               transform="scale(1.0603869,0.94305201)"
               x="49.129696"
               y="171.08701"
               style="font-size:15.0888px;stroke-width:1.2574"><tspan
                 id="tspan7"
                 style="font-variant:normal;font-weight:normal;font-size:18.592px;font-family:'Ubuntu Sans';writing-mode:lr-tb;fill:#3a629f;fill-opacity:1;fill-rule:nonzero;stroke:none;stroke-width:1.2574"
                 x="49.129696"
                 y="171.08701">a</tspan></text>
            <path
               id="path8"
               d="m 56.849332,161.53163 c -0.74,0 -1.396,-0.0937 -1.98,-0.27155 -0.572,-0.1921 -1.02,-0.49922 -1.353333,-0.91662 -0.333334,-0.41621 -0.5,-0.96879 -0.5,-1.66604 0,-0.6676 0.177333,-1.20833 0.541333,-1.62573 0.374667,-0.41621 0.885333,-0.71266 1.541333,-0.89527 0.650667,-0.19329 1.385334,-0.29171 2.208,-0.29171 0.36,0 0.74,0.0368 1.146667,0.10435 0.416,0.0569 0.672,0.10435 0.770667,0.14585 v -0.52175 c 0,-0.40079 -0.05733,-0.78025 -0.166667,-1.14547 -0.114667,-0.37472 -0.344,-0.67709 -0.688,-0.91663 -0.333333,-0.23478 -0.848,-0.35455 -1.541333,-0.35455 -0.724,0 -1.281334,0.0522 -1.666667,0.14585 -0.374667,0.0996 -0.656,0.17787 -0.833333,0.23005 l -0.208,-1.12532 c 0.234666,-0.083 0.593333,-0.1672 1.082666,-0.2502 0.485334,-0.083 1.062667,-0.12451 1.729334,-0.12451 0.928,0 1.666666,0.14585 2.208,0.43756 0.542666,0.2917 0.927999,0.69724 1.166666,1.20832 0.250667,0.49922 0.376,1.07789 0.376,1.72889 v 5.70842 c -0.266667,0.0569 -0.761333,0.13519 -1.48,0.22886 -0.708,0.1091 -1.494666,0.1672 -2.353333,0.1672 z m 0.208,-1.12532 c 0.469333,0 0.885333,-0.0107 1.249333,-0.0415 0.36,-0.0261 0.666667,-0.0628 0.917334,-0.10435 v -3.06291 c -0.125334,-0.0522 -0.349334,-0.1091 -0.666667,-0.16602 -0.306667,-0.0522 -0.708,-0.0842 -1.208,-0.0842 -0.432,0 -0.865333,0.0427 -1.292,0.1257 -0.432,0.0723 -0.802667,0.22886 -1.104,0.47906 -0.292,0.2502 -0.437333,0.62017 -0.437333,1.10398 0,0.65693 0.229333,1.11464 0.686666,1.37552 0.469334,0.2502 1.089334,0.37471 1.854667,0.37471 z"
               style="fill:none;stroke:#3a629f;stroke-width:1.16199;stroke-linecap:butt;stroke-linejoin:miter;stroke-miterlimit:4;stroke-dasharray:none;stroke-opacity:1" />
            <text
               id="text8"
               xml:space="preserve"
               transform="scale(1.0603869,0.94305201)"
               x="58.685947"
               y="171.08701"
               style="font-size:15.0888px;stroke-width:1.2574"><tspan
                 id="tspan8"
                 style="font-variant:normal;font-weight:normal;font-size:18.592px;font-family:'Ubuntu Sans';writing-mode:lr-tb;fill:#3a629f;fill-opacity:1;fill-rule:nonzero;stroke:none;stroke-width:1.2574"
                 x="58.685947"
                 y="171.08701">p</tspan></text>
            <text
               id="text9"
               xml:space="preserve"
               transform="scale(1.0603869,0.94305201)"
               x="69.56221"
               y="171.08701"
               style="font-size:15.0888px;stroke-width:1.2574"><tspan
                 id="tspan9"
                 style="font-variant:normal;font-weight:normal;font-size:18.592px;font-family:'Ubuntu Sans';writing-mode:lr-tb;fill:#3a629f;fill-opacity:1;fill-rule:nonzero;stroke:none;stroke-width:1.2574"
                 x="69.56221"
                 y="171.08701">t</tspan></text>
            <path
               id="path10"
               d="m 78.739998,161.53163 c -0.865333,0 -1.542667,-0.13637 -2.042667,-0.39606 -0.5,-0.26087 -0.853333,-0.66641 -1.061333,-1.20832 -0.198667,-0.54191 -0.292,-1.21426 -0.292,-2.0206 v -8.27093 l 1.478667,-0.23004 v 2.85421 h 4 v 1.10516 h -4 v 4.64477 c 0,0.64151 0.07333,1.13599 0.229333,1.47987 0.166667,0.33321 0.401333,0.56207 0.708,0.68776 0.318667,0.12451 0.688,0.18736 1.104,0.18736 0.5,0 0.917333,-0.0474 1.250667,-0.14586 0.333333,-0.10909 0.593333,-0.2087 0.792,-0.2917 l 0.333333,1.06247 c -0.209333,0.11384 -0.542667,0.22886 -1,0.35455 -0.448,0.12451 -0.948,0.18736 -1.5,0.18736 z"
               style="fill:none;stroke:#3a629f;stroke-width:1.16199;stroke-linecap:butt;stroke-linejoin:miter;stroke-miterlimit:4;stroke-dasharray:none;stroke-opacity:1" />
            <text
               id="text10"
               xml:space="preserve"
               transform="scale(1.0603869,0.94305201)"
               x="76.868843"
               y="171.08701"
               style="font-size:15.0888px;stroke-width:1.2574"><tspan
                 id="tspan10"
                 style="font-variant:normal;font-weight:normal;font-size:18.592px;font-family:'Ubuntu Sans';writing-mode:lr-tb;fill:#3a629f;fill-opacity:1;fill-rule:nonzero;stroke:none;stroke-width:1.2574"
                 x="76.868843"
                 y="171.08701">i</tspan></text>
            <text
               id="text11"
               xml:space="preserve"
               transform="scale(1.0603869,0.94305201)"
               x="81.349442"
               y="171.08701"
               style="font-size:15.0888px;stroke-width:1.2574"><tspan
                 id="tspan11"
                 style="font-variant:normal;font-weight:normal;font-size:18.592px;font-family:'Ubuntu Sans';writing-mode:lr-tb;fill:#3a629f;fill-opacity:1;fill-rule:nonzero;stroke:none;stroke-width:1.2574"
                 x="81.349442"
                 y="171.08701">v</tspan></text>
            <path
               id="path12"
               d="m 90.385331,161.34427 c -0.333333,-0.6261 -0.677333,-1.29251 -1.021333,-2.00043 -0.333334,-0.70792 -0.666667,-1.44312 -1,-2.20796 -0.322667,-0.77669 -0.634667,-1.57355 -0.937334,-2.39649 -0.290666,-0.81701 -0.557333,-1.64588 -0.790666,-2.4795 h 1.561333 c 0.209333,0.80753 0.469333,1.6779 0.792,2.6052 0.317333,0.93203 0.666667,1.84272 1.041333,2.72851 0.376,0.87512 0.734667,1.64589 1.084,2.3123 0.26,-0.4838 0.525334,-1.04112 0.792,-1.66604 0.276,-0.63559 0.546667,-1.29726 0.812,-1.97909 0.26,-0.69251 0.505334,-1.38027 0.729334,-2.06329 0.218666,-0.67709 0.416,-1.32216 0.582666,-1.93759 h 1.48 c -0.24,0.83362 -0.510666,1.66249 -0.813333,2.4795 -0.290667,0.82294 -0.604,1.6198 -0.937333,2.39649 -0.322667,0.76484 -0.645334,1.50004 -0.978667,2.20796 -0.333333,0.70792 -0.677333,1.37433 -1.021333,2.00043 z"
               style="fill:none;stroke:#3a629f;stroke-width:1.16199;stroke-linecap:butt;stroke-linejoin:miter;stroke-miterlimit:4;stroke-dasharray:none;stroke-opacity:1" />
            <text
               id="text12"
               xml:space="preserve"
               transform="scale(1.0603869,0.94305201)"
               x="90.385094"
               y="171.08701"
               style="font-size:15.0888px;stroke-width:1.2574"><tspan
                 id="tspan12"
                 style="font-variant:normal;font-weight:normal;font-size:18.592px;font-family:'Ubuntu Sans';writing-mode:lr-tb;fill:#3a629f;fill-opacity:1;fill-rule:nonzero;stroke:none;stroke-width:1.2574"
                 x="90.385094"
                 y="171.08701">e</tspan></text>
            <path
               id="path13"
               d="m 101.96933,161.53163 c -1.19867,0 -2.166666,-0.19803 -2.917332,-0.60476 -0.74,-0.41621 -1.281334,-0.97946 -1.625334,-1.68738 -0.348,-0.70792 -0.52,-1.52019 -0.52,-2.438 0,-1.06722 0.213334,-1.94708 0.645334,-2.64551 0.442666,-0.70792 1.005333,-1.23441 1.688,-1.58304 0.692,-0.34388 1.421332,-0.52056 2.186662,-0.52056 0.844,0 1.584,0.16127 2.20934,0.47906 0.624,0.32254 1.104,0.81227 1.43733,1.47869 0.34267,0.65693 0.52,1.48936 0.52,2.50084 0,0.083 -0.009,0.18143 -0.02,0.29052 0,0.11502 -0.0107,0.21937 -0.0213,0.31305 h -7.104002 c 0.052,1.03164 0.364,1.8285 0.937333,2.39531 0.568,0.57392 1.458669,0.85496 2.666669,0.85496 0.66666,0 1.21333,-0.0522 1.64533,-0.1672 0.428,-0.10909 0.73467,-0.20751 0.91733,-0.29171 l 0.24934,1.10398 c -0.18134,0.0996 -0.54134,0.2087 -1.08267,0.33439 -0.53067,0.12451 -1.136,0.18736 -1.812,0.18736 z m -3.479999,-5.47956 h 5.603999 c -0.0147,-0.59409 -0.124,-1.10991 -0.33333,-1.54154 -0.208,-0.42688 -0.50934,-0.75535 -0.896,-0.97947 -0.39067,-0.23478 -0.864,-0.35455 -1.416,-0.35455 -0.584,0 -1.09334,0.14111 -1.521336,0.4174 -0.432,0.26562 -0.770666,0.62017 -1.02,1.06248 -0.24,0.43163 -0.376,0.89527 -0.417333,1.39568 z"
               style="fill:none;stroke:#3a629f;stroke-width:1.16199;stroke-linecap:butt;stroke-linejoin:miter;stroke-miterlimit:4;stroke-dasharray:none;stroke-opacity:1" />
            <text
               id="text13"
               xml:space="preserve"
               transform="scale(1.0603869,0.94305201)"
               x="100.6478"
               y="171.08701"
               style="font-size:15.0888px;stroke-width:1.2574"><tspan
                 id="tspan13"
                 style="font-variant:normal;font-weight:normal;font-size:18.592px;font-family:'Ubuntu Sans';writing-mode:lr-tb;fill:#3a629f;fill-opacity:1;fill-rule:nonzero;stroke:none;stroke-width:1.2574"
                 x="100.6478"
                 y="171.08701"> H</tspan></text>
            <path
               id="path14"
               d="m 112.98933,161.34427 v -12.16745 h 1.54133 v 5.22936 h 7.14667 v -5.22936 h 1.54133 v 12.16745 h -1.54133 v -5.77126 h -7.14667 v 5.77126 z"
               style="fill:none;stroke:#3a629f;stroke-width:1.16199;stroke-linecap:butt;stroke-linejoin:miter;stroke-miterlimit:4;stroke-dasharray:none;stroke-opacity:1" />
            <text
               id="text14"
               xml:space="preserve"
               transform="scale(1.0603869,0.94305201)"
               x="117.86388"
               y="171.08701"
               style="font-size:15.0888px;stroke-width:1.2574"><tspan
                 id="tspan14"
                 style="font-variant:normal;font-weight:normal;font-size:18.592px;font-family:'Ubuntu Sans';writing-mode:lr-tb;fill:#3a629f;fill-opacity:1;fill-rule:nonzero;stroke:none;stroke-width:1.2574"
                 x="117.86388"
                 y="171.08701">o</tspan></text>
            <path
               id="path15"
               d="m 130.72933,161.55179 c -0.90667,0 -1.708,-0.19803 -2.41733,-0.58341 -0.708,-0.38539 -1.26534,-0.93678 -1.66667,-1.64589 -0.40533,-0.71859 -0.604,-1.56169 -0.604,-2.521 0,-0.95812 0.19867,-1.79055 0.604,-2.49966 0.40133,-0.70792 0.95867,-1.25457 1.66667,-1.64588 0.70933,-0.4008 1.51066,-0.60357 2.41733,-0.60357 0.916,0 1.72933,0.20277 2.43733,0.60357 0.71867,0.39131 1.276,0.93796 1.66667,1.64588 0.40133,0.70911 0.604,1.54154 0.604,2.49966 0,0.95931 -0.20267,1.80241 -0.604,2.521 -0.39067,0.70911 -0.93733,1.2605 -1.64533,1.64589 -0.70934,0.38538 -1.532,0.58341 -2.45867,0.58341 z m 0,-1.16682 c 0.66667,0 1.23467,-0.14586 1.708,-0.43756 0.46933,-0.29171 0.83333,-0.70792 1.084,-1.24983 0.26,-0.54191 0.396,-1.17157 0.396,-1.89609 0,-0.71859 -0.136,-1.35418 -0.396,-1.8949 -0.25067,-0.54191 -0.61467,-0.95812 -1.084,-1.24983 -0.47333,-0.29171 -1.04133,-0.43756 -1.708,-0.43756 -0.64133,0 -1.19867,0.14585 -1.66667,0.43756 -0.47466,0.29171 -0.844,0.70792 -1.104,1.24983 -0.25066,0.54072 -0.37466,1.17631 -0.37466,1.8949 0,0.72452 0.124,1.35418 0.37466,1.89609 0.26,0.54191 0.62934,0.95812 1.104,1.24983 0.468,0.2917 1.02534,0.43756 1.66667,0.43756 z"
               style="fill:none;stroke:#3a629f;stroke-width:1.16199;stroke-linecap:butt;stroke-linejoin:miter;stroke-miterlimit:4;stroke-dasharray:none;stroke-opacity:1" />
            <text
               id="text15"
               xml:space="preserve"
               transform="scale(1.0603869,0.94305201)"
               x="128.74013"
               y="171.08701"
               style="font-size:15.0888px;stroke-width:1.2574"><tspan
                 id="tspan15"
                 style="font-variant:normal;font-weight:normal;font-size:18.592px;font-family:'Ubuntu Sans';writing-mode:lr-tb;fill:#3a629f;fill-opacity:1;fill-rule:nonzero;stroke:none;stroke-width:1.2574"
                 x="128.74013"
                 y="171.08701">m</tspan></text>
            <path
               id="path16"
               d="m 138.16133,161.34427 v -8.77133 c 0.41733,-0.0937 0.93733,-0.19803 1.56267,-0.31305 0.636,-0.12451 1.42133,-0.18735 2.35466,-0.18735 0.65067,0 1.208,0.0842 1.66667,0.2502 0.468,0.1672 0.85333,0.4174 1.14533,0.75061 0.12534,-0.0842 0.33334,-0.19803 0.62534,-0.35456 0.30133,-0.16719 0.68666,-0.31305 1.14533,-0.43755 0.46933,-0.13518 1.00533,-0.2087 1.604,-0.2087 1.04133,0 1.82267,0.18261 2.35467,0.5419 0.54133,0.36523 0.90133,0.85378 1.08266,1.47988 0.19334,0.62491 0.292,1.34825 0.292,2.16645 v 5.0835 H 150.516 v -4.70879 c 0,-0.7767 -0.0627,-1.41703 -0.188,-1.91625 -0.11467,-0.5004 -0.344,-0.86563 -0.688,-1.10516 -0.348,-0.24902 -0.85334,-0.37471 -1.52,-0.37471 -0.48934,0 -0.912,0.0522 -1.27067,0.14585 -0.36533,0.0996 -0.66133,0.21937 -0.896,0.35455 -0.224,0.12451 -0.39067,0.22412 -0.5,0.29171 0.12533,0.29171 0.21333,0.62492 0.27067,0.99963 0.068,0.37471 0.104,0.76602 0.104,1.16682 v 5.14635 h -1.47867 v -4.70879 c 0,-0.7767 -0.0627,-1.41703 -0.188,-1.91625 -0.11467,-0.5004 -0.34933,-0.86563 -0.708,-1.10516 -0.34933,-0.24902 -0.86933,-0.37471 -1.56267,-0.37471 -0.37466,0 -0.724,0.0154 -1.04133,0.0415 -0.308,0.032 -0.56267,0.0628 -0.77067,0.10435 -0.19866,0.032 -0.344,0.0569 -0.43866,0.083 v 7.87605 z"
               style="fill:none;stroke:#3a629f;stroke-width:1.16199;stroke-linecap:butt;stroke-linejoin:miter;stroke-miterlimit:4;stroke-dasharray:none;stroke-opacity:1" />
            <text
               id="text16"
               xml:space="preserve"
               transform="scale(1.0603869,0.94305201)"
               x="144.78496"
               y="171.08701"
               style="font-size:15.0888px;stroke-width:1.2574"><tspan
                 id="tspan16"
                 style="font-variant:normal;font-weight:normal;font-size:18.592px;font-family:'Ubuntu Sans';writing-mode:lr-tb;fill:#3a629f;fill-opacity:1;fill-rule:nonzero;stroke:none;stroke-width:1.2574"
                 x="144.78496"
                 y="171.08701">e</tspan></text>
            <path
               id="path17"
               d="m 159.65066,161.53163 c -1.19733,0 -2.16666,-0.19803 -2.916,-0.60476 -0.74,-0.41621 -1.28133,-0.97946 -1.62533,-1.68738 -0.34933,-0.70792 -0.52133,-1.52019 -0.52133,-2.438 0,-1.06722 0.21466,-1.94708 0.64666,-2.64551 0.44267,-0.70792 1.00534,-1.23441 1.68667,-1.58304 0.69333,-0.34388 1.42267,-0.52056 2.188,-0.52056 0.844,0 1.584,0.16127 2.208,0.47906 0.62533,0.32254 1.104,0.81227 1.43733,1.47869 0.344,0.65693 0.52134,1.48936 0.52134,2.50084 0,0.083 -0.0107,0.18143 -0.0213,0.29052 0,0.11502 -0.009,0.21937 -0.02,0.31305 h -7.104 c 0.052,1.03164 0.364,1.8285 0.93734,2.39531 0.568,0.57392 1.45866,0.85496 2.66666,0.85496 0.66667,0 1.21334,-0.0522 1.64534,-0.1672 0.42666,-0.10909 0.73466,-0.20751 0.91733,-0.29171 l 0.24933,1.10398 c -0.18266,0.0996 -0.54133,0.2087 -1.08266,0.33439 -0.532,0.12451 -1.136,0.18736 -1.81334,0.18736 z m -3.47866,-5.47956 h 5.604 c -0.016,-0.59409 -0.12534,-1.10991 -0.33334,-1.54154 -0.208,-0.42688 -0.51066,-0.75535 -0.896,-0.97947 -0.39066,-0.23478 -0.864,-0.35455 -1.416,-0.35455 -0.584,0 -1.09466,0.14111 -1.52133,0.4174 -0.432,0.26562 -0.77067,0.62017 -1.02133,1.06248 -0.23867,0.43163 -0.37467,0.89527 -0.416,1.39568 z"
               style="fill:none;stroke:#3a629f;stroke-width:1.16199;stroke-linecap:butt;stroke-linejoin:miter;stroke-miterlimit:4;stroke-dasharray:none;stroke-opacity:1" />
            <text
               id="text17"
               xml:space="preserve"
               transform="scale(1.0603869,0.94305201)"
               x="155.04768"
               y="171.08701"
               style="font-size:15.0888px;stroke-width:1.2574"><tspan
                 id="tspan17"
                 style="font-variant:normal;font-weight:normal;font-size:18.592px;font-family:'Ubuntu Sans';writing-mode:lr-tb;fill:#3a629f;fill-opacity:1;fill-rule:nonzero;stroke:none;stroke-width:1.2574"
                 x="155.04768"
                 y="171.08701"> I</tspan></text>
            <path
               id="path18"
               d="m 170.67733,149.17682 h 1.54133 v 12.16627 h -1.54133 z"
               style="fill:none;stroke:#3a629f;stroke-width:1.16199;stroke-linecap:butt;stroke-linejoin:miter;stroke-miterlimit:4;stroke-dasharray:none;stroke-opacity:1" />
            <text
               id="text18"
               xml:space="preserve"
               transform="scale(1.0603869,0.94305201)"
               x="164.06471"
               y="171.08701"
               style="font-size:15.0888px;stroke-width:1.2574"><tspan
                 id="tspan18"
                 style="font-variant:normal;font-weight:normal;font-size:18.592px;font-family:'Ubuntu Sans';writing-mode:lr-tb;fill:#3a629f;fill-opacity:1;fill-rule:nonzero;stroke:none;stroke-width:1.2574"
                 x="164.06471"
                 y="171.08701">n</tspan></text>
            <path
               id="path19"
               d="m 175.62,161.34427 v -8.77133 c 0.416,-0.0937 0.948,-0.19803 1.604,-0.31305 0.65066,-0.12451 1.44266,-0.18735 2.37466,-0.18735 1.052,0 1.87467,0.18261 2.45867,0.5419 0.59333,0.34863 1.01067,0.83362 1.24933,1.45853 0.25067,0.62492 0.376,1.35418 0.376,2.1878 v 5.0835 h -1.48 v -4.70879 c 0,-0.83362 -0.0827,-1.48936 -0.24933,-1.97909 -0.16667,-0.50041 -0.45867,-0.85971 -0.87467,-1.08382 -0.40666,-0.21819 -0.96933,-0.33321 -1.688,-0.33321 -0.55733,0 -1.04133,0.032 -1.45866,0.083 -0.416,0.0581 -0.69734,0.10435 -0.83334,0.14586 v 7.87605 z"
               style="fill:none;stroke:#3a629f;stroke-width:1.16199;stroke-linecap:butt;stroke-linejoin:miter;stroke-miterlimit:4;stroke-dasharray:none;stroke-opacity:1" />
            <text
               id="text19"
               xml:space="preserve"
               transform="scale(1.0603869,0.94305201)"
               x="174.68068"
               y="171.08701"
               style="font-size:15.0888px;stroke-width:1.2574"><tspan
                 id="tspan19"
                 style="font-variant:normal;font-weight:normal;font-size:18.592px;font-family:'Ubuntu Sans';writing-mode:lr-tb;fill:#3a629f;fill-opacity:1;fill-rule:nonzero;stroke:none;stroke-width:1.2574"
                 x="174.68068"
                 y="171.08701">n</tspan></text>
            <path
               id="path20"
               d="m 186.87466,161.34427 v -8.77133 c 0.41734,-0.0937 0.948,-0.19803 1.604,-0.31305 0.652,-0.12451 1.44267,-0.18735 2.376,-0.18735 1.052,0 1.87467,0.18261 2.45734,0.5419 0.59466,0.34863 1.01066,0.83362 1.25066,1.45853 0.24934,0.62492 0.37467,1.35418 0.37467,2.1878 v 5.0835 h -1.47867 v -4.70879 c 0,-0.83362 -0.084,-1.48936 -0.25066,-1.97909 -0.16667,-0.50041 -0.45867,-0.85971 -0.87467,-1.08382 -0.40667,-0.21819 -0.96933,-0.33321 -1.688,-0.33321 -0.55733,0 -1.04133,0.032 -1.45733,0.083 -0.41734,0.0581 -0.69867,0.10435 -0.83334,0.14586 v 7.87605 z"
               style="fill:none;stroke:#3a629f;stroke-width:1.16199;stroke-linecap:butt;stroke-linejoin:miter;stroke-miterlimit:4;stroke-dasharray:none;stroke-opacity:1" />
            <text
               id="text20"
               xml:space="preserve"
               transform="scale(1.0603869,0.94305201)"
               x="185.29666"
               y="171.08701"
               style="font-size:15.0888px;stroke-width:1.2574"><tspan
                 id="tspan20"
                 style="font-variant:normal;font-weight:normal;font-size:18.592px;font-family:'Ubuntu Sans';writing-mode:lr-tb;fill:#3a629f;fill-opacity:1;fill-rule:nonzero;stroke:none;stroke-width:1.2574"
                 x="185.29666"
                 y="171.08701">o</tspan></text>
            <path
               id="path21"
               d="m 202.23466,161.55179 c -0.90667,0 -1.708,-0.19803 -2.41733,-0.58341 -0.708,-0.38539 -1.26533,-0.93678 -1.66667,-1.64589 -0.40533,-0.71859 -0.604,-1.56169 -0.604,-2.521 0,-0.95812 0.19867,-1.79055 0.604,-2.49966 0.40134,-0.70792 0.95867,-1.25457 1.66667,-1.64588 0.70933,-0.4008 1.51066,-0.60357 2.41733,-0.60357 0.916,0 1.72933,0.20277 2.43733,0.60357 0.71867,0.39131 1.276,0.93796 1.66667,1.64588 0.40133,0.70911 0.604,1.54154 0.604,2.49966 0,0.95931 -0.20267,1.80241 -0.604,2.521 -0.39067,0.70911 -0.93733,1.2605 -1.64533,1.64589 -0.70934,0.38538 -1.532,0.58341 -2.45867,0.58341 z m 0,-1.16682 c 0.66667,0 1.23467,-0.14586 1.708,-0.43756 0.46933,-0.29171 0.83333,-0.70792 1.084,-1.24983 0.26,-0.54191 0.39467,-1.17157 0.39467,-1.89609 0,-0.71859 -0.13467,-1.35418 -0.39467,-1.8949 -0.25067,-0.54191 -0.61467,-0.95812 -1.084,-1.24983 -0.47333,-0.29171 -1.04133,-0.43756 -1.708,-0.43756 -0.64133,0 -1.19867,0.14585 -1.66667,0.43756 -0.47466,0.29171 -0.84399,0.70792 -1.10399,1.24983 -0.25067,0.54072 -0.376,1.17631 -0.376,1.8949 0,0.72452 0.12533,1.35418 0.376,1.89609 0.26,0.54191 0.62933,0.95812 1.10399,1.24983 0.468,0.2917 1.02534,0.43756 1.66667,0.43756 z"
               style="fill:none;stroke:#3a629f;stroke-width:1.16199;stroke-linecap:butt;stroke-linejoin:miter;stroke-miterlimit:4;stroke-dasharray:none;stroke-opacity:1" />
            <text
               id="text21"
               xml:space="preserve"
               transform="scale(1.0603869,0.94305201)"
               x="196.13573"
               y="171.08701"
               style="font-size:15.0888px;stroke-width:1.2574"><tspan
                 id="tspan21"
                 style="font-variant:normal;font-weight:normal;font-size:18.592px;font-family:'Ubuntu Sans';writing-mode:lr-tb;fill:#3a629f;fill-opacity:1;fill-rule:nonzero;stroke:none;stroke-width:1.2574"
                 x="196.13573"
                 y="171.08701">v</tspan></text>
            <path
               id="path22"
               d="m 212.10399,161.34427 c -0.33333,-0.6261 -0.67733,-1.29251 -1.02133,-2.00043 -0.33333,-0.70792 -0.66667,-1.44312 -1,-2.20796 -0.32267,-0.77669 -0.63467,-1.57355 -0.93733,-2.39649 -0.29067,-0.81701 -0.55734,-1.64588 -0.79067,-2.4795 h 1.56267 c 0.208,0.80753 0.468,1.6779 0.79066,2.6052 0.31867,0.93203 0.66667,1.84272 1.04134,2.72851 0.376,0.87512 0.73466,1.64589 1.084,2.3123 0.26,-0.4838 0.52666,-1.04112 0.792,-1.66604 0.276,-0.63559 0.54666,-1.29726 0.812,-1.97909 0.26,-0.69251 0.50533,-1.38027 0.72933,-2.06329 0.21867,-0.67709 0.41733,-1.32216 0.58267,-1.93759 h 1.48 c -0.24,0.83362 -0.51067,1.66249 -0.81334,2.4795 -0.29066,0.82294 -0.604,1.6198 -0.93733,2.39649 -0.32267,0.76484 -0.64533,1.50004 -0.97867,2.20796 -0.33333,0.70792 -0.67733,1.37433 -1.02133,2.00043 z"
               style="fill:none;stroke:#3a629f;stroke-width:1.16199;stroke-linecap:butt;stroke-linejoin:miter;stroke-miterlimit:4;stroke-dasharray:none;stroke-opacity:1" />
            <text
               id="text22"
               xml:space="preserve"
               transform="scale(1.0603869,0.94305201)"
               x="205.18996"
               y="171.08701"
               style="font-size:15.0888px;stroke-width:1.2574"><tspan
                 id="tspan22"
                 style="font-variant:normal;font-weight:normal;font-size:18.592px;font-family:'Ubuntu Sans';writing-mode:lr-tb;fill:#3a629f;fill-opacity:1;fill-rule:nonzero;stroke:none;stroke-width:1.2574"
                 x="205.18996"
                 y="171.08701">a</tspan></text>
            <path
               id="path23"
               d="m 222.33333,161.53163 c -0.74,0 -1.396,-0.0937 -1.97867,-0.27155 -0.57333,-0.1921 -1.02133,-0.49922 -1.35467,-0.91662 -0.33333,-0.41621 -0.5,-0.96879 -0.5,-1.66604 0,-0.6676 0.17734,-1.20833 0.54134,-1.62573 0.37466,-0.41621 0.88533,-0.71266 1.54266,-0.89527 0.65067,-0.19329 1.38534,-0.29171 2.208,-0.29171 0.35867,0 0.73867,0.0368 1.14534,0.10435 0.41733,0.0569 0.672,0.10435 0.77066,0.14585 v -0.52175 c 0,-0.40079 -0.0573,-0.78025 -0.16666,-1.14547 -0.11467,-0.37472 -0.344,-0.67709 -0.68667,-0.91663 -0.33333,-0.23478 -0.84933,-0.35455 -1.54267,-0.35455 -0.724,0 -1.28133,0.0522 -1.66666,0.14585 -0.37467,0.0996 -0.656,0.17787 -0.83334,0.23005 l -0.208,-1.12532 c 0.23467,-0.083 0.59334,-0.1672 1.084,-0.2502 0.484,-0.083 1.06134,-0.12451 1.728,-0.12451 0.928,0 1.66667,0.14585 2.20934,0.43756 0.54133,0.2917 0.92666,0.69724 1.16666,1.20832 0.24934,0.49922 0.37467,1.07789 0.37467,1.72889 v 5.70842 c -0.26533,0.0569 -0.76,0.13519 -1.47867,0.22886 -0.70933,0.1091 -1.49466,0.1672 -2.35466,0.1672 z m 0.208,-1.12532 c 0.46933,0 0.88533,-0.0107 1.25066,-0.0415 0.35867,-0.0261 0.66667,-0.0628 0.916,-0.10435 v -3.06291 c -0.124,-0.0522 -0.348,-0.1091 -0.66666,-0.16602 -0.30667,-0.0522 -0.708,-0.0842 -1.208,-0.0842 -0.432,0 -0.864,0.0427 -1.292,0.1257 -0.432,0.0723 -0.80134,0.22886 -1.104,0.47906 -0.292,0.2502 -0.43734,0.62017 -0.43734,1.10398 0,0.65693 0.22934,1.11464 0.688,1.37552 0.468,0.2502 1.088,0.37471 1.85334,0.37471 z"
               style="fill:none;stroke:#3a629f;stroke-width:1.16199;stroke-linecap:butt;stroke-linejoin:miter;stroke-miterlimit:4;stroke-dasharray:none;stroke-opacity:1" />
            <text
               id="text23"
               xml:space="preserve"
               transform="scale(1.0603869,0.94305201)"
               x="214.74622"
               y="171.08701"
               style="font-size:15.0888px;stroke-width:1.2574"><tspan
                 id="tspan23"
                 style="font-variant:normal;font-weight:normal;font-size:18.592px;font-family:'Ubuntu Sans';writing-mode:lr-tb;fill:#3a629f;fill-opacity:1;fill-rule:nonzero;stroke:none;stroke-width:1.2574"
                 x="214.74622"
                 y="171.08701">t</tspan></text>
            <path
               id="path24"
               d="m 232.69333,161.53163 c -0.86534,0 -1.54267,-0.13637 -2.04267,-0.39606 -0.5,-0.26087 -0.85333,-0.66641 -1.06267,-1.20832 -0.19733,-0.54191 -0.29066,-1.21426 -0.29066,-2.0206 v -8.27093 l 1.47866,-0.23004 v 2.85421 h 4 v 1.10516 h -4 v 4.64477 c 0,0.64151 0.0733,1.13599 0.22934,1.47987 0.16666,0.33321 0.40133,0.56207 0.708,0.68776 0.31733,0.12451 0.688,0.18736 1.104,0.18736 0.5,0 0.91733,-0.0474 1.25066,-0.14586 0.33334,-0.10909 0.59334,-0.2087 0.792,-0.2917 l 0.33334,1.06247 c -0.20934,0.11384 -0.54267,0.22886 -1,0.35455 -0.448,0.12451 -0.948,0.18736 -1.5,0.18736 z"
               style="fill:none;stroke:#3a629f;stroke-width:1.16199;stroke-linecap:butt;stroke-linejoin:miter;stroke-miterlimit:4;stroke-dasharray:none;stroke-opacity:1" />
            <text
               id="text24"
               xml:space="preserve"
               transform="scale(1.0603869,0.94305201)"
               x="222.05284"
               y="171.08701"
               style="font-size:15.0888px;stroke-width:1.2574"><tspan
                 id="tspan24"
                 style="font-variant:normal;font-weight:normal;font-size:18.592px;font-family:'Ubuntu Sans';writing-mode:lr-tb;fill:#3a629f;fill-opacity:1;fill-rule:nonzero;stroke:none;stroke-width:1.2574"
                 x="222.05284"
                 y="171.08701">i</tspan></text>
            <text
               id="text25"
               xml:space="preserve"
               transform="scale(1.0603869,0.94305201)"
               x="226.57065"
               y="171.08701"
               style="font-size:15.0888px;stroke-width:1.2574"><tspan
                 id="tspan25"
                 style="font-variant:normal;font-weight:normal;font-size:18.592px;font-family:'Ubuntu Sans';writing-mode:lr-tb;fill:#3a629f;fill-opacity:1;fill-rule:nonzero;stroke:none;stroke-width:1.2574"
                 x="226.57065"
                 y="171.08701">o</tspan></text>
            <path
               id="path26"
               d="m 245.99999,161.55179 c -0.90666,0 -1.708,-0.19803 -2.416,-0.58341 -0.70933,-0.38539 -1.26666,-0.93678 -1.66666,-1.64589 -0.40667,-0.71859 -0.60534,-1.56169 -0.60534,-2.521 0,-0.95812 0.19867,-1.79055 0.60534,-2.49966 0.4,-0.70792 0.95733,-1.25457 1.66666,-1.64588 0.708,-0.4008 1.50934,-0.60357 2.416,-0.60357 0.91734,0 1.72934,0.20277 2.43734,0.60357 0.71866,0.39131 1.276,0.93796 1.66666,1.64588 0.40134,0.70911 0.604,1.54154 0.604,2.49966 0,0.95931 -0.20266,1.80241 -0.604,2.521 -0.39066,0.70911 -0.93733,1.2605 -1.64533,1.64589 -0.70933,0.38538 -1.532,0.58341 -2.45867,0.58341 z m 0,-1.16682 c 0.66667,0 1.23467,-0.14586 1.708,-0.43756 0.46934,-0.29171 0.83334,-0.70792 1.084,-1.24983 0.26,-0.54191 0.396,-1.17157 0.396,-1.89609 0,-0.71859 -0.136,-1.35418 -0.396,-1.8949 -0.25066,-0.54191 -0.61466,-0.95812 -1.084,-1.24983 -0.47333,-0.29171 -1.04133,-0.43756 -1.708,-0.43756 -0.64,0 -1.19733,0.14585 -1.66666,0.43756 -0.47334,0.29171 -0.844,0.70792 -1.104,1.24983 -0.25067,0.54072 -0.37467,1.17631 -0.37467,1.8949 0,0.72452 0.124,1.35418 0.37467,1.89609 0.26,0.54191 0.63066,0.95812 1.104,1.24983 0.46933,0.2917 1.02666,0.43756 1.66666,0.43756 z"
               style="fill:none;stroke:#3a629f;stroke-width:1.16199;stroke-linecap:butt;stroke-linejoin:miter;stroke-miterlimit:4;stroke-dasharray:none;stroke-opacity:1" />
            <text
               id="text26"
               xml:space="preserve"
               transform="scale(1.0603869,0.94305201)"
               x="237.4469"
               y="171.08701"
               style="font-size:15.0888px;stroke-width:1.2574"><tspan
                 id="tspan26"
                 style="font-variant:normal;font-weight:normal;font-size:18.592px;font-family:'Ubuntu Sans';writing-mode:lr-tb;fill:#3a629f;fill-opacity:1;fill-rule:nonzero;stroke:none;stroke-width:1.2574"
                 x="237.4469"
                 y="171.08701">n</tspan></text>
            <path
               id="path27"
               d="m 253.43199,161.34427 v -8.77133 c 0.41734,-0.0937 0.948,-0.19803 1.604,-0.31305 0.652,-0.12451 1.44267,-0.18735 2.376,-0.18735 1.052,0 1.87467,0.18261 2.45734,0.5419 0.59466,0.34863 1.01066,0.83362 1.25066,1.45853 0.24934,0.62492 0.37467,1.35418 0.37467,2.1878 v 5.0835 h -1.47867 v -4.70879 c 0,-0.83362 -0.084,-1.48936 -0.25066,-1.97909 -0.16667,-0.50041 -0.45867,-0.85971 -0.87467,-1.08382 -0.40667,-0.21819 -0.96933,-0.33321 -1.688,-0.33321 -0.55733,0 -1.04133,0.032 -1.45733,0.083 -0.41734,0.0581 -0.69867,0.10435 -0.83334,0.14586 v 7.87605 z"
               style="fill:none;stroke:#3a629f;stroke-width:1.16199;stroke-linecap:butt;stroke-linejoin:miter;stroke-miterlimit:4;stroke-dasharray:none;stroke-opacity:1" />
            <text
               id="text27"
               xml:space="preserve"
               transform="scale(1.0603869,0.94305201)"
               x="248.0629"
               y="171.08701"
               style="font-size:15.0888px;stroke-width:1.2574"><tspan
                 id="tspan27"
                 style="font-variant:normal;font-weight:normal;font-size:18.592px;font-family:'Ubuntu Sans';writing-mode:lr-tb;fill:#3a629f;fill-opacity:1;fill-rule:nonzero;stroke:none;stroke-width:1.2574"
                 x="248.0629"
                 y="171.08701">s</tspan></text>
            <path
               id="path28"
               d="m 266.87466,161.55179 c -0.87467,0 -1.56267,-0.0723 -2.06267,-0.20752 -0.48933,-0.12569 -0.812,-0.21937 -0.97866,-0.2917 l 0.35466,-1.16682 c 0.13467,0.0415 0.42667,0.13992 0.87467,0.2917 0.45867,0.15534 1.06267,0.22886 1.812,0.22886 0.71867,0 1.30267,-0.0937 1.75067,-0.29171 0.45733,-0.19328 0.68666,-0.5419 0.68666,-1.04112 0,-0.30238 -0.0827,-0.55259 -0.24933,-0.75061 -0.156,-0.1921 -0.40667,-0.37472 -0.75067,-0.54191 -0.348,-0.16601 -0.828,-0.35337 -1.43733,-0.56207 -0.5,-0.17668 -0.97333,-0.37471 -1.416,-0.58341 -0.432,-0.21937 -0.78667,-0.48973 -1.06267,-0.81227 -0.26533,-0.33321 -0.396,-0.75535 -0.396,-1.27117 0,-0.50041 0.14534,-0.93797 0.43734,-1.31268 0.292,-0.37471 0.69866,-0.66642 1.22933,-0.87512 0.54133,-0.20751 1.17733,-0.31186 1.91733,-0.31186 0.676,0 1.25467,0.0569 1.728,0.16601 0.46934,0.0996 0.80267,0.18735 1,0.27155 l -0.33333,1.14547 c -0.16667,-0.083 -0.448,-0.17668 -0.83333,-0.2917 -0.37467,-0.10909 -0.91067,-0.1672 -1.604,-0.1672 -0.55734,0 -1.04134,0.10435 -1.45867,0.31305 -0.40533,0.19803 -0.604,0.51582 -0.604,0.95813 0,0.32372 0.084,0.57866 0.25067,0.77076 0.17733,0.19803 0.43733,0.36997 0.77066,0.52057 0.344,0.15652 0.77067,0.31305 1.27067,0.48024 0.568,0.19685 1.07333,0.40555 1.52133,0.62492 0.45734,0.22293 0.82267,0.49922 1.104,0.83243 0.276,0.33321 0.416,0.78737 0.416,1.35418 0,0.54191 -0.16133,1.01029 -0.47866,1.39686 -0.32267,0.37472 -0.77067,0.66049 -1.35467,0.85378 -0.58267,0.17668 -1.28533,0.27036 -2.104,0.27036 z"
               style="fill:none;stroke:#3a629f;stroke-width:1.16199;stroke-linecap:butt;stroke-linejoin:miter;stroke-miterlimit:4;stroke-dasharray:none;stroke-opacity:1" />
            <text
               id="text28"
               xml:space="preserve"
               transform="scale(1.0603869,0.94305201)"
               x="256.13174"
               y="171.08701"
               style="font-size:15.0888px;stroke-width:1.2574"><tspan
                 id="tspan28"
                 style="font-variant:normal;font-weight:normal;font-size:18.592px;font-family:'Ubuntu Sans';writing-mode:lr-tb;fill:#3a629f;fill-opacity:1;fill-rule:nonzero;stroke:none;stroke-width:1.2574"
                 x="256.13174"
                 y="171.08701"> L</tspan></text>
            <path
               id="path29"
               d="m 277.86399,161.34427 v -12.16745 h 1.54267 v 10.97929 h 6.37467 v 1.18816 z"
               style="fill:none;stroke:#3a629f;stroke-width:1.16199;stroke-linecap:butt;stroke-linejoin:miter;stroke-miterlimit:4;stroke-dasharray:none;stroke-opacity:1" />
            <text
               id="text29"
               xml:space="preserve"
               transform="scale(1.0603869,0.94305201)"
               x="269.85254"
               y="171.08701"
               style="font-size:15.0888px;stroke-width:1.2574"><tspan
                 id="tspan29"
                 style="font-variant:normal;font-weight:normal;font-size:18.592px;font-family:'Ubuntu Sans';writing-mode:lr-tb;fill:#3a629f;fill-opacity:1;fill-rule:nonzero;stroke:none;stroke-width:1.2574"
                 x="269.85254"
                 y="171.08701">L</tspan></text>
            <path
               id="path30"
               d="m 287.89599,161.34427 v -12.16745 h 1.54134 v 10.97929 h 6.37466 v 1.18816 z"
               style="fill:none;stroke:#3a629f;stroke-width:1.16199;stroke-linecap:butt;stroke-linejoin:miter;stroke-miterlimit:4;stroke-dasharray:none;stroke-opacity:1" />
            <text
               id="text30"
               xml:space="preserve"
               transform="scale(1.0603869,0.94305201)"
               x="278.72086"
               y="171.08701"
               style="font-size:15.0888px;stroke-width:1.2574"><tspan
                 id="tspan30"
                 style="font-variant:normal;font-weight:normal;font-size:18.592px;font-family:'Ubuntu Sans';writing-mode:lr-tb;fill:#3a629f;fill-opacity:1;fill-rule:nonzero;stroke:none;stroke-width:1.2574"
                 x="278.72086"
                 y="171.08701">C</tspan></text>
            <path
               id="path31"
               d="m 303.03066,161.61464 c -1.19733,0 -2.27067,-0.24428 -3.228,-0.72927 -0.948,-0.5004 -1.688,-1.219 -2.22933,-2.16645 -0.54267,-0.94271 -0.81334,-2.09411 -0.81334,-3.45896 0,-1.0103 0.16667,-1.91625 0.5,-2.70836 0.344,-0.79093 0.81867,-1.45735 1.41734,-1.99925 0.59333,-0.54191 1.276,-0.94271 2.04133,-1.20833 0.776,-0.27629 1.584,-0.4174 2.41733,-0.4174 0.692,0 1.296,0.0522 1.812,0.14585 0.52534,0.0996 0.95867,0.21937 1.292,0.35455 0.344,0.12451 0.604,0.22886 0.77067,0.31306 l -0.5,1.16563 c -0.33333,-0.17668 -0.76133,-0.34269 -1.27067,-0.49922 -0.516,-0.16719 -1.14133,-0.2502 -1.876,-0.2502 -1.08266,0 -2,0.21819 -2.74933,0.64626 -0.74,0.41621 -1.30267,1.01504 -1.688,1.79174 -0.37467,0.76483 -0.56267,1.6613 -0.56267,2.68701 0,1.03164 0.17734,1.92692 0.54267,2.68701 0.37467,0.76603 0.916,1.36485 1.624,1.79174 0.72,0.4174 1.60533,0.62492 2.64667,0.62492 0.87466,0 1.59333,-0.0676 2.16666,-0.20752 0.58267,-0.15178 1.02534,-0.30238 1.33334,-0.4589 l 0.416,1.14548 c -0.208,0.12569 -0.66667,0.28696 -1.37467,0.48024 -0.69733,0.17669 -1.59333,0.27037 -2.688,0.27037 z"
               style="fill:none;stroke:#3a629f;stroke-width:1.16199;stroke-linecap:butt;stroke-linejoin:miter;stroke-miterlimit:4;stroke-dasharray:none;stroke-opacity:1" />
          </g>
        </g>
      </g>
    </g>
    <text
       id="text31"
       xml:space="preserve"
       transform="scale(1.1675186,0.85651741)"
       x="23.500845"
       y="211.22049"
       style="font-style:normal;font-variant:normal;font-weight:normal;font-stretch:normal;font-size:14.5599px;font-family:sans-serif;-inkscape-font-specification:'sans-serif, Normal';font-variant-ligatures:normal;font-variant-caps:normal;font-variant-numeric:normal;font-variant-east-asian:normal;stroke-width:1.12545"><tspan
         id="tspan31"
         style="font-style:normal;font-variant:normal;font-weight:normal;font-stretch:normal;font-size:14.5599px;font-family:sans-serif;-inkscape-font-specification:'sans-serif, Normal';font-variant-ligatures:normal;font-variant-caps:normal;font-variant-numeric:normal;font-variant-east-asian:normal;writing-mode:lr-tb;fill:#3a629f;fill-opacity:1;fill-rule:nonzero;stroke:none;stroke-width:1.12545"
         x="23.500845"
         dx="0 0 0 0 0 0 0 0 0 0 0 0 0 0 0 0 0 0 0 0 0 0"
         y="211.22049">Custom Improvements &amp; Repairs</tspan></text>
  </g>
  <metadata
     id="metadata7">
    <rdf:RDF>
      <cc:Work
         rdf:about="">
        <dc:title>Adaptive Home Innvoations Logo</dc:title>
        <dc:date>5/1/26</dc:date>
        <dc:creator>
          <cc:Agent>
            <dc:title>Steve Del Valle</dc:title>
          </cc:Agent>
        </dc:creator>
        <dc:rights>
          <cc:Agent>
            <dc:title>Steve Del Valle</dc:title>
          </cc:Agent>
        </dc:rights>
        <dc:publisher>
          <cc:Agent>
            <dc:title>Steve Del Valle</dc:title>
          </cc:Agent>
        </dc:publisher>
        <dc:source>Steve Del Valle</dc:source>
      </cc:Work>
    </rdf:RDF>
  </metadata>
</svg>
